/* XPM */
static char *_f9256f3ce2642bcaa2862e4bc834e3f[] = {
/* columns rows colors chars-per-pixel */
"32 32 173 2 ",
"   c None",
".  c #DD972F",
"X  c #DA9F2F",
"o  c #DF9830",
"O  c #DC9F30",
"+  c #DF9F31",
"@  c #E19831",
"#  c #E19931",
"$  c #E09A31",
"%  c #E19A31",
"&  c #E29A31",
"*  c #E29932",
"=  c #E39A32",
"-  c #E29B32",
";  c #E39B32",
":  c #E49A32",
">  c #E49B32",
",  c #E59A33",
"<  c #E49B33",
"1  c #E59B33",
"2  c #E19C31",
"3  c #E19D31",
"4  c #E39C32",
"5  c #E29D32",
"6  c #E39D32",
"7  c #E39E32",
"8  c #E29F32",
"9  c #E39F32",
"0  c #E49C32",
"q  c #E49C33",
"w  c #E59C33",
"e  c #E59D33",
"r  c #E69D33",
"t  c #E49E33",
"y  c #E49F33",
"u  c #E59F33",
"i  c #E69E33",
"p  c #DBA02F",
"a  c #DBA330",
"s  c #DEA131",
"d  c #DFA131",
"f  c #DDA530",
"g  c #DFA531",
"h  c #DEAC32",
"j  c #E0A031",
"k  c #E1A132",
"l  c #E3A133",
"z  c #E3A233",
"x  c #E3A333",
"c  c #E4A033",
"v  c #E4A133",
"b  c #E6A033",
"n  c #E1A532",
"m  c #E0A632",
"M  c #E1A632",
"N  c #E6A134",
"B  c #E5A234",
"V  c #E6A334",
"C  c #E5A434",
"Z  c #E5A534",
"A  c #E7A434",
"S  c #E6A634",
"D  c #E7A634",
"F  c #E7A735",
"G  c #E0A832",
"H  c #E1A832",
"J  c #E3A833",
"K  c #E3AA33",
"L  c #E0AE32",
"P  c #E4A834",
"I  c #E5A934",
"U  c #E6A934",
"Y  c #E4AB34",
"T  c #E6AB34",
"R  c #E7AA35",
"E  c #E3AF34",
"W  c #E4AC34",
"Q  c #E5AD34",
"!  c #E5AE34",
"~  c #E7AF35",
"^  c #E8A935",
"/  c #E8AA35",
"(  c #E8AB35",
")  c #E8AC35",
"_  c #E3B334",
"`  c #E6B035",
"'  c #E7B035",
"]  c #E6B135",
"[  c #E5B235",
"{  c #E3B534",
"}  c #E7B435",
"|  c #E6B535",
" . c #E4B635",
".. c #E7B536",
"X. c #E7B636",
"o. c #E7B736",
"O. c #E9B036",
"+. c #E9B136",
"@. c #E8B236",
"#. c #E9B236",
"$. c #E9B336",
"%. c #EAB337",
"&. c #E8B436",
"*. c #E8B536",
"=. c #EAB537",
"-. c #E8B636",
";. c #E9B737",
":. c #E6B835",
">. c #E5BB35",
",. c #E6B836",
"<. c #E7B936",
"1. c #E6BA36",
"2. c #E6BC36",
"3. c #E7BD36",
"4. c #EAB837",
"5. c #EBB837",
"6. c #EBB937",
"7. c #E8BA37",
"8. c #E9BA37",
"9. c #E8BB37",
"0. c #E9BB37",
"q. c #E9BC37",
"w. c #E9BD37",
"e. c #EBB938",
"r. c #EBBC38",
"t. c #EBBD38",
"y. c #EBBE38",
"u. c #ECBD38",
"i. c #ECBE38",
"p. c #ECBF38",
"a. c #E9C137",
"s. c #EAC038",
"d. c #EAC138",
"f. c #EBC138",
"g. c #EAC238",
"h. c #EBC238",
"j. c #EAC338",
"k. c #EBC338",
"l. c #ECC139",
"z. c #ECC339",
"x. c #EBC438",
"c. c #ECC439",
"v. c #ECC539",
"b. c #EDC539",
"n. c #ECC639",
"m. c #EDC639",
"M. c #EEC53A",
"N. c #EDC839",
"B. c #EDC83A",
"V. c #EDC93A",
"C. c #EEC83A",
"Z. c #EEC93A",
"A. c #EECA3A",
"S. c #EFCA3A",
"D. c #EECB3A",
"F. c #EFCB3A",
"G. c #EFCB3B",
"H. c #EECC3A",
"J. c #EFCC3B",
"K. c #F0CA3A",
"L. c #F0CB3A",
"P. c #F0CB3B",
"I. c #F1CB3B",
"U. c #F0CC3A",
"Y. c #F1CC3B",
"T. c #F2CC3A",
"R. c #F2CC3B",
"E. c #F4CE3B",
"W. c #F4CE3C",
"Q. c #F5CE3C",
"!. c #F5CF3C",
"~. c #F6CF3C",
"^. c #F6D03C",
/* pixels */
"                                                                ",
"                              I.I.                              ",
"                      I.I.T.^.!.!.^.T.I.I.                      ",
"                  I.!.E.Z.Z.H.H.Z.T.H.Z.!.!.T.                  ",
"              I.!.I.Z.Z.b.r.*.[ [ [ <.j.Z.Z.T.!.I.              ",
"            T.^.Z.Z.j.[ l > 1 w > > 5 5 x <.Z.Z.^.T.            ",
"          T.!.Z.Z.X.5 e e e w w w w w w e 5 K k.Z.^.I.          ",
"        Z.E.Z.Z.W e w e e e > e w w w w e e ; X a.Z.^.Z.        ",
"        !.Z.Z.K e e e > e C *.6.e.*.U w w w w w d j.Z.!.        ",
"      Z.T.H.X.; e e e C r.b.u.6.5.u.b.r.^ w c w ; g Z.T.Z.      ",
"      ^.Z.x.l w e e U b.e.C w w 1 1 c e.b.) w w e ; { H.!.      ",
"    Z.E.Z.[ e w > C b.+.w w w c c w 1 > +.b.C w e > O b.!.Z.    ",
"    Z.Z.Z.x w w w r.e.w w > U b.5.1 1 w > *.u.w w w . <.I.Z.    ",
"    T.Z.a.5 w w C x.C w w U q.H.l.%.c w e l b.U w w o h Z.R.    ",
"    ^.I.<.; e 1 [ u.e w 5 3.I.Z.H.H.) w e e e.*.w w ; a I.^.    ",
"  Z.!.Z.X.> e > *.e.> w e d <.Z.e.x c w e e *.e.w c ; p Z.^.Z.  ",
"  Z.^.H.X.5 w w *.6.w w w > E J.*.w w w w q X.e.> w e X Z.!.Z.  ",
"    ^.Z.r.q w w W l.w w w > E H.r.U c w w q r.%.w w 5 g T.^.    ",
"    T.Z.j.e w w C b.C w w w g H.Z.Z.=.w q l b.U w w ; h G.T.    ",
"    Z.Z.Z.C w w e r.e.w w w ; _ b.b.*.w < 5.u.w w w o 3.G.Z.    ",
"    Z.!.Z.X.1 w e C b.+.e e e ; 5 5 e > e a.+.w w 5 d Z.!.Z.    ",
"      ^.Z.b.l w e e U b.6.C > w e e A ) c +.u.w w ; { Z.!.      ",
"      Z.T.Z.X.e e e e C r.b.r.6.6.q.Z.x.b.x.Z.) > x Z.T.Z.      ",
"        E.Z.Z.W > e e e e U +.e.6.+.C e c U U c d x.Z.!.        ",
"        Z.^.Z.Z.W e e e e > w w w > e e w 5 ; l j.Z.^.Z.        ",
"          I.E.Z.Z.X.5 e w w w w w e e e w ; K x.H.R.I.          ",
"            T.^.Z.H.b.W c 5 > w w 1 5 e J e.Z.Z.^.T.            ",
"              I.R.T.Z.Z.Z.q.*.+.+.X.<.x.H.Z.T.!.R.              ",
"                  R.^.T.Z.Z.H.Z.Z.Z.Z.H.T.^.I.                  ",
"                      I.T.T.^.E.^.^.R.T.I.                      ",
"                              I.I.                              ",
"                                                                "
};
