/* XPM */
static char *_e89bee92ec24f2ed34f32db6c692026[] = {
/* columns rows colors chars-per-pixel */
"128 128 48 1 ",
"  c None",
". c #B8741E",
"X c #BD7520",
"o c #BD7B21",
"O c #C37D24",
"+ c #BF8022",
"@ c #C48524",
"# c #CA8426",
"$ c #C68A26",
"% c #C98C27",
"& c #CE8629",
"* c #CE8D29",
"= c #D48C2B",
"- c #D88F2D",
"; c #C99127",
": c #CD9329",
"> c #CF992A",
", c #D3942C",
"< c #DB932E",
"1 c #D49B2D",
"2 c #D99B2E",
"3 c #DE9630",
"4 c #DD9B30",
"5 c #E09731",
"6 c #E59D33",
"7 c #D5A32D",
"8 c #D9A32F",
"9 c #D7A82F",
"0 c #D9A92F",
"q c #DDA530",
"w c #DDAB31",
"e c #DEB132",
"r c #E9A126",
"t c #E6A334",
"y c #E5AB34",
"u c #E8AD36",
"i c #E3B434",
"p c #E9B337",
"a c #E5BB36",
"s c #EABB37",
"d c #EBBD38",
"f c #E7C037",
"g c #E8C137",
"h c #ECC539",
"j c #EEC93A",
"k c #F1CC3B",
"l c #F7D13C",
"z c #F8D13C",
/* pixels */
"                                                                                                                                ",
"                                                                                                                                ",
"                                                                                                                                ",
"                                                                                                                                ",
"                                                                                                                                ",
"                                                               kj                                                               ",
"                                                     kkjjjklzzzkllzllkjjjkk                                                     ",
"                                                 kkjlllkkjjjjjjjjjjjjjjkklzljjk                                                 ",
"                                             kkjllkjjjjjjjjjjjjjjjjjjjjjjjjjjkllkkk                                             ",
"                                           kklkjjjjjjhjjjjjjjjjhjjjjjjjjjjjjjjjjjklkk                                           ",
"                                        ljlkkjjjjjjjjjjjjjjjjjjjjjhjjjjjjjjjjjjjjjjjlljk                                        ",
"                                      kklkjjjjjjjjjjjjjjjjjjjjjjjjjjjjjjjjjjjjjjjjjjjjklkk                                      ",
"                                    kkljjjjjjhjjjjjjjjjjhjjjjjjjjjjjjhjjjjjjjjjjjjjjjjjjjlkk                                    ",
"                                  lkljjjjjjjjjjjjjjjjjjjjjjjjjjjjjjjjjjjjjjjjjjjjjjjjjjjjjjlkk                                  ",
"                                 kzjjjjjjjjjjjjjjjjjjjjjjjjjjhjjjjjhjjjjjjjhjjjjjjjjjjjjjjjjklk                                 ",
"                               kkkjjjjjjjjjjjjjjjjjjjjjjjjjjjjjjjjjjjjjjjjjjjjjjjjjjjjjjjjjjjjlkk                               ",
"                              kzjjjjjjjjhjjjjjjjjjjjjjjjjjjjjjkkkkkjkjjjjjjjjjjjjjjjjjjjjjjjjjjjzk                              ",
"                            jkkjjjjjjjjjjjjjjjjjjjjjjjjjjhhaaiiwywwiiahhjkkjjjjjjjjjjjjjjjjjjjjjkkkj                            ",
"                           kkkkjjjjjjjjjjjjjjjjjjjkkjfi9212<33633333<<,*,79ahkkjjjjjjjjjjjjjjjjjkhklk                           ",
"                          kzkjjjjjjjjjjjjjjjjjjjjhiq1<3666666666666t666633-=*>wfkjjjjjjjhjjjjjjjhkjklk                          ",
"                         kkjjjjjjjjjjjjjjjjjjjjaw2<566666666666666666666666663=*>ehjjjjjjjjjjjjjkjjjjlj                         ",
"                        kkjjjjjjjjjjjjjjjjjjji2566666666666666666666666666666666<&*7fkjjjjjjjjjjhjjjjjlk                        ",
"                       kkkjjjjjjjjjjjjjjjjhi1566666666666666666666666666666666666t6=#7fkjjjjjjjjjjjjjjkkk                       ",
"                      kkjjjjjjjjjjjjjjjjji25t66666666666666666t6666666666666666666666,%9jjjjjjjjjjjjjjjkkk                      ",
"                     kkjjjjjjjjjjjjjjjkf85666666666666666666666666t666666666666666666t6=*ijjjjjjjjjjjjjjjkk                     ",
"                    kkjjjjjjjjjjjjjjjjw<6666t66666666666666666666666666666666666666666665&1hjjjjjjjjjjjjjjkk                    ",
"                   kkkjjjjjjjjjjjjjjh15666666666666666666666666666666666666666666666666666,%ikjjjhjjjjjjjjjkk                   ",
"                  jzjjjjjjjjjjjjjjja,66666666666666666666666666666666t6666666666666666666663&9jjjjjjhjjjjjjjzk                  ",
"                 jljjjjjjjjjjhjjjjw-6666666666666666666666666666666666666666666666666666666t6&1jjjjjkjjjjjjjjlj                 ",
"                 kkjjjjjjjjjjjjjk9<t6666666666666666666666666666666666666666t6666666666666666t=:hjjjjjhjjjjjjkk                 ",
"                jkjjjjjjjjjjjjjj2<t666666666666666666666666666666666666666666666666666666666666<;jjjjjjjjjjjjjkk                ",
"               jzjjjjjjjjjjjjjk2<666666666666666666t66666666666666666666666666666666666666666666,%hkjjjjjjjjjjjzj               ",
"               kjjjjhjjjjjjjjk9<66666666666666666666666666666666666666666666666666666666666666666-%hkjjjjjjjjjjjj               ",
"              kkjjjjjjjjjjhjkw-666666666666666666666666666tuppssddppuy6666666666666666666666666666-:jjjjjjjjjjjjkj              ",
"             jzjjjjjjjjjjjkke=666666666666t66666666663tifhjjjjjjjjjjkhhhpt666666666666666666666t66t=7jjjjjjjjjjjjzj             ",
"             kkjjjjjjjjjjjja=66666666666666666666646uhjkjjjjjjjjjjjjjjjjjjhpt66666666666666666666666#wkjjjjjjjjjjjk             ",
"            jzjjjjjjjjjjjjj:6666666666666666666664phjkjjjjjjjjjjjjjjjjjjjjjjjpt6666666666666666666664@ajjjjjjjjhjjlj            ",
"            kjjjjhjjjjjjjk8366666666666666666664ihjjjjjjjjkjjjjjhjjjjkjjjjjjjjjpt666666666666666666663%hjjjjjjjjjjkk            ",
"           jkjjjjjjjjjjjji,6666666t66666666664qdjjjjjjjjjhpuytt6ttttypfhjkjjjjjjdu6666t66666666666666t&7jjjjjjjjjjjlj           ",
"           kkjjjjjjjjjjjj,6666666666666666666yhkjjjjjjdpt66666666666666tyajkjjjjkkp66666666666666666666oajjjjjjjjjjjk           ",
"          jzjjjjjjjjjjjjw3666666666666666664pjjjjjjjst66666666666666666666tihkhjjjjdt66666666666666666t-*jjjjjjjjjjjlk          ",
"          jkjjjjjjjjjjjf=666666666666666664ikjjjjkdu666666666666666666666666tajkjjjjdt666666666666666666Oekjjjjjjjjjkj          ",
"          zjjjjjjjjjjjjq3666666t6666666664akjjjjju6666666666666666666666666664yhjhjjkht66666666666666666-$jjjjjjjjjjjl          ",
"         jkkjjjjjjjjjha,66666666666666664akjjjjhy6666666666666666666666666666664dkjjjkd666666666666666666owkjjjjjjjjkkk         ",
"         kjjjjjjjjjjjj836666666666666663ekjjjjdt666666666666666666666666666666664pkkjjkd66666666666666666-#jjjjjjjjjjkj         ",
"        jkjjjjjjjjjjjg=6666666666666666wkjjjjd666666666666666666666666666666666664ekjjhjp66666666666666666oejjjjjjjjjklj        ",
"        jkjjjjjjjjjjkw36666666666666668hjjhjd66666666666666666666666666666666666664ijjkhjt6666666666666666&;kjjjjjjjjjkj        ",
"        kkjjjjjjjjjjj166666t6666666663akjjkht6666666666666666666tpt6666666666t666664akjjjh666666666666t66t3ohjjjjjjjjjjk        ",
"        zkjjjjjjjjjji<666666666666666wjjjjjt66666666666666upsdhjjjp666666666666666664jjjjjs6666666666666666o9jjjjjjjjjjl        ",
"       jkjjjjjjjjjjkq36666666666t6663hjjjju66666t66666666,jjjjjjjjp666666666666666666qjjjjht666666666666666*+kjjhjjjjjjlk       ",
"       jkjjhjjjjjjjj,666666666666666wjjjjd666666666666663:jjjjjjjjp5666666666666666663ijjhjs66666666t6666663ofjjjjjjjhjkj       ",
"       kjjjjjjjjhjja<66666t666666664hjjjju666666666666664:kjjjjjjju66666666666666666664jjjkht666666666666666X9jjjjjjjjjjk       ",
"       ljjjjjhjjjjjw<66666666666666wjjjkd66666t6666666665:jjjjjjjkp66666666666666666663ekjjjp66666666666666tO;jjjjjjjjjjl       ",
"      jzjjjjjjjjjjk1366666666666663ajjjjt666666666666t6t6,kjjjjjjjpttttty666666666666t64jjjjht66666666666666*ojjjjjjjjjjlk      ",
"      jkjjjjjjjjjjh,666666666666664jjjjh6666666666633hhhhdjjjjjjjjjjjjjhjt66666666666t63ijjjhu66666666666666<Xfjjjjjjjjjlk      ",
"      kkjjjjjjjjjjf<66666666666666wkhhkp666666666663,kkkjjjjjjjjjjjjjjjjjt66666666666666qkjjjp666666666666663Xejjjjhjjjjkh      ",
"      kkjjjjjjjjjja<666666t6666663ikjjjt666666666663>kjjjjjjjjjjjjjjjjjjjt6666666t6666664hjjkd666666666666666X7kjjjjjjjjkk      ",
"      jjjjjjjjjjjkw,66666666666663hjjjdt6666666666t3,jjjjjjjjjjjjjjjjjjjjt666666666666663ajjjjt6666t666666666O;kjjjjjjjjkh      ",
"      kjjjjjjjhjjjq366666666666664hjjjp66666666666t3>jjjjjjjjjjjjjjjjjjjjt666666666666664wkhjjt6666666666666tO$kjjjjjjjjjk      ",
"      kjjjjjjjjjjj736666666666t66qjjjju6666666666665>kjjjjjjjjjjjjjjjjjjht666666666666666wkjhku66666666666666&okjjjjjjjjjk      ",
"      ljjjjjjjjjjj166666666666664wkjjju6666666666663,kkjjjjjjjjjjjjjjjjjkt6666666666666664jjjjp66666666666666*ohjjjjjjjjkl      ",
"      zjjjjjjjjjjj,66666666666666wjjjjt6666666666666#1>1>wjjjjjjjj8;,*:*-66666666666666663hjjkp66666666666666%Xfjjjjjjjjkz      ",
"      zjjjjjjjjjjj166666666666665ijjjjt66666666666663333-:kjjjjjjjt33665666666666666666663hjjjd6t6666666666663Xajjjjjjjjjl      ",
"     jkkjjjjjjjjjj266666666666665ijjjjt56t666666666666663>jjjjjjjjp666666666t6666666666664hjjkd66666666666666-Xajjjjkhjkhkk     ",
"     kkjjjjjjjjjjh266666666666665ikhjht666666666666666663>kjjjjjjju66666666666666666666663hkjjd666666666666665.fjjjjjjjjhkk     ",
"      zjjjjjjjjjjh466666666666665ekjjjt666666666666666665>jjjjjjjju566666666666666t6666665hjjjd66666666666666<.fjjjjjjjjjl      ",
"      ljjjjjjjjjjj266666666666665ykjjjt666666666666666665:kjjjjjjju66666666666t66666666664hjjkp66666666666666-Xfjjjjjjjjjl      ",
"      ljjjjjjjhjjj466666666t66666wkjjjt66t666666666666665,jjjhjjjju66666666666666666666662hjjjp66666666666666<ohjjjjjjjjjl      ",
"      ljhjjjjjjjjj946666666666666qjjkju666666666666666665:kjjjjjjju6666666666666666666666qkjjju6666666666666t=ojjjjjjjjjkl      ",
"      kjjjjjjjjjjkw666666666666664jjhjs666666666666666666%jjjjjjjju6666666666666666666665ijjjjt6666666666666t*+jjjjjjjjjjk      ",
"      jjjjjjjjjjjke666666666666664djjkh666666666666666666:jjjhjjjjdt66tpu6666666666666663ajjjht66666t6666666tO;kjjjjjjjjjj      ",
"      jjjjjjjjjjjji3t6666666666664ijjjjt66666666t66666665:jjjjjjjjjjddhjp6666666666666663hjjjh666666666666666O7kjjjjjjjjkj      ",
"      kkjjjjjjjjjjh466666666t66666wkjjku66666666666666666%hjjjjjjjjjjjjjkt66666666666666qjjjjd666666666666666owjjhjjjjjjkj      ",
"      jkjjjjjjjjjjj4666666666666664jjjjd66666666666666666#ajjjjjjjjjjjjjjp6666666666666<pkjjjt666666666666665ofjjjjjjjjjkj      ",
"      kljjhjjjjjjjkq666666666666663ajjjjt6666666666666666&wkjjjjjjjjjjjjjju666666666666qjjjjdt6666666666666t-+jjjjjjjjjjlk      ",
"       ljjjjjjhjjjje666666666666666qkjjjd66666666666666663$jjjjjjjjjjjjjjjp666666666665ijjjku66666666666666t=;kjjjjjjjjjl       ",
"       kjjjkjjjjjjkf3666666666666663hjjjhu6666666666666666Oekjjjjjjjjjjjjjjt6666666666qhjjjht66666t666666666O9kjjjjjjjjjk       ",
"       jkjjjjjjjhjjj4666666666666666ejjjjh666666666666666t3Oakjjjjjjjjjjjjjd6666666664pjjjjs6666666666666666odjjjjjjjjjkj       ",
"       kljjjjjjjjjjjw6666666666666663hjjjjp6666666666666666=@akjjjjjjjjjjjfy6666666669jjjjjt66666666666666t3#jjjjjjjjjklk       ",
"        ljhjjjjjjjhkd4666666666t66664ejjhkjt66666666t6666666-o>ajjjjkjhaw235666666664hjjjjp6666666666666666O9jjjjjjjjjjz        ",
"        kkjjjjjjjhjjj46666666666666663akhjjht66666666666666666=##;,>>,,-366666666665tkjjjh66666666666666666odjjjjjjjjjjk        ",
"        kkkhhjjjjjjjke66666666666666664kjjjjd666666666666666666663343666t66666666666wjjjju6666666666666666<:jjjjhjjjjjkj        ",
"        hlkkjjjjjjjjjh46666666666666666wjjjjjd666666666666666666666666666666666666664jjjjd6666666666666666Oejjjjjjjjjjlk        ",
"         kjhjjjjjjjjjjw36666666666666664ikjjjkdt6666666666666666666666666666666666664ajjjjt666666666666663%jjjjhjjjjjjk         ",
"         kkhjjjjjjjjjjf366666666666666663ijjjjjht666666666666666666666666666666666663ijjjku66666666666666&wkjjjjjjjjjkk         ",
"          ljjjjjjjjjjjjq666666666666t66664fjjjjjjp66666666666t666666666666666666666664jjjjd666666666666t3%jjjjjjjjjjjl          ",
"          jkjjjhjjjjjjjh3666666666666666664djjjjjjdt666666666666666666666666yut6666663ajjjjy666666666666#ejjjjjjjjjjjj          ",
"          kljjjjjjjjjjjjw4666666666666666664ijjjjjkjdy66666666666666666666ypjkjdpt6666qjjjjd666666666663;jjjjjjjjjjjzj          ",
"           kkjjjjjjjhjjjh26666t66666666666666wjjjjjjjjhit66666666666666tpdkjjjjjjjddppqjjjjju6666666666#ajjjjjjjjjjjk           ",
"           kljjjjjjjjjjjja36666666666666666666qdjjjhjjjkjhppttt6tttupdhjkjjjjjjjjjjjjjjjjjjjju66t66666=9jjjjjjjjjjjlk           ",
"            kjjjjjjjjjjjjjq3666666666t666t666665yhkjjjjjjjjjjjjjhjjjjjjjjjjjjjjjjjjjjjjjjjjjjd66666663;jjjjjjjjjjjjl            ",
"            jljjjjjjjjjjjjh16666666666666666666666igjjjjjjjjjjjjjjjjjjjjjjjjjwajkkjjjjjjjjjjjd6666663#ajjjjjjjjjjjlj            ",
"             kjhjjjjjjjjjjkf36666666666666666666666quajhjjjjjjjjjjjjjjjjjjdpt3--8efjjjjkkjjjjp666666*wjjjjjjjjjjjjk             ",
"             klkjjjjjjjjjjjje-666666666666666666666666yusjjjjkjjjjjjjjhdpu666t663<--12qqwqwtt666666=1kjjjjjjjjjjjlj             ",
"              jkjjjjjjjjjjjjke3666666666666666666666666666tuppssddppuyt6666666666tt666553566666666,>jjjjjjjjjjjjkj              ",
"               kjjjjjjjjjjjjjjq3t6666666666666666666666666666666666666666666666666666666t666666663:jjjjjjjjjjjjjl               ",
"               kljjhjjjjjjjjjjjq<6666666666666666666666666666666666666666666666666666666666666663:jjjjjjjjjjjjklj               ",
"                kkjkjjjjjjkhjjjjq3t666666666666t666666666666666666666666666666666666666666666663*hjjjjjjjjjjjjkk                ",
"                 kjjjjjjjjjjjjjjjw<66666666666666666666666666t66666666666666666666666666666666,>hjjjjjjjjjjjjkk                 ",
"                 hljhjjjjjjjjjjjjje<6666666666666666666666666666666t6666666666666666666666666=1jjjjjjjjjjjjjhlh                 ",
"                  kljjjjjjjjjjjjjjja,66666666666666666666666666666666666t6666666666666666666*qjjjjjjjjjhjjjjlk                  ",
"                   klhjjjjjjjjjjjjjjg236666666666666666666666666666666666666666666666666663*ajjjjjjjjjjjjjjlk                   ",
"                    klhjjjjjjjjjjjjjkjw,666666666666t666666666666666666666666666666666666=1jkjjjjhjjjjjjjjlk                    ",
"                     kkkjjjjjjjjjjjjjjjs1<66666666666666666666666666666666666666666t666,:ejjjjjjjjjjjjjjjkk                     ",
"                      kkjjjjjjjjjjjjjjjjji1<666666666666666666666666t666t6666666666663*8hkjjjjjjjjjjjjjjkk                      ",
"                       kjjjjjjjjjjjjjjjjjjjw,<66666666666666666666666666666666666663*8jjjjjjjjjjjjjjjjjkk                       ",
"                        kkjjjjjjjjjjjjjhjjjjji1<6666666666666666666666666666666663:qhjjjjjjjjjjhjjjjjjlk                        ",
"                         klhjjjjjhjjjjjjjjjjjkji8<<6666666666666666666666666643<4ejjjjjjjjjjjjjjjjjjjlk                         ",
"                          kzjhjjjjjjjjjjjjjjjjjjjhaq1<36666666666666666664432qefjjjjjjjjhjjjjjjjjjkklk                          ",
"                           klkjjjjjjjjjjjjjjjjjjjjjjjfiwq4266666666634644qyajjjjjjjjjjjjjjjjjjjjjjklk                           ",
"                            kkkjjjjjjjjjjjjjhjjjjjjjjjjjjjgsaiiiiiaiaffhjjjjjjjjjjjjjjjjjjjjjjjhhkkj                            ",
"                              kzjjjjjjjjjjjjjjjjjjjjjjjjjjjjjjkkjkjjjjjjjjjjjjjjjjjjjjjjjjjjjjjklk                              ",
"                               kkkkjjjjjjjjjjjjjjjjjjjjjjjjjjjjjjjjjjjjjjjjjjjjjjjjjjjjjjjjjjjkkk                               ",
"                                 kzkjjjjjjjjjjjjjjjjjjjjjjjjjjjjjjjjjjjjjjjjjjjjjjjjjjjjjjjjkzk                                 ",
"                                  kkkkjjjjjjjjjjjjjhjjjjjjjjjjjjjjjjjjjhjjhjjjjjjjjhjjhjjhklkk                                  ",
"                                    kkzkjjjjjjjjjjjjjjjjjjjjjjjjjjjjjjjjjjjjjjjjjjjjjjjjklkk                                    ",
"                                      kkkkkkjjjjjjjjjhjjjjhjjjjjjjjjjjjjjjjjhjjjjjjjhkkzkk                                      ",
"                                        kjzkjjjjjjjjjjjjjjjjjjjjjjjjjjjjjjjjjjjjjjjkklkk                                        ",
"                                           kjzkkjjjjjjjjjjjjjjjjjjjjjjjjjjjjjjjjjklkk                                           ",
"                                             kkkzzjjjjjjjjjjjjjjjjhjjjjjjjjjkkkzjkk                                             ",
"                                                 kkjkzkkkjjkjjkjjjjjjjjkkkzzkkk                                                 ",
"                                                     kkkjjkkzzzkkzzzkkjjjkk                                                     ",
"                                                               jk                                                               ",
"                                                                                                                                ",
"                                                                                                                                ",
"                                                                                                                                ",
"                                                                                                                                ",
"                                                                                                                                "
};
