/* XPM */
static char *_259cfc516e443e59247a7713ab4f5bb[] = {
/* columns rows colors chars-per-pixel */
"64 64 31 1 ",
"  c None",
". c #CB8A27",
"X c #CC8B28",
"o c #D58E2C",
"O c #CE9229",
"+ c #D3942C",
"@ c #DB942E",
"# c #D69B2D",
"$ c #DA9B2F",
"% c #DF9630",
"& c #DF9B30",
"* c #E09731",
"= c #E59D33",
"- c #D5A12E",
"; c #D9A12F",
": c #DDA431",
"> c #DDAA31",
", c #DEB132",
"< c #E4A433",
"1 c #E3AB34",
"2 c #E8AC35",
"3 c #E4B335",
"4 c #E9B437",
"5 c #E6BB36",
"6 c #E9BB37",
"7 c #ECBE38",
"8 c #E8C137",
"9 c #ECC439",
"0 c #EEC93A",
"q c #F1CC3B",
"w c #F7D13C",
/* pixels */
"                                                                ",
"                                                                ",
"                                                                ",
"                               qq                               ",
"                        qq00qqqqwwqqq0qq                        ",
"                     qq0wqq0qq0000000qqq0qq                     ",
"                   0qw0000000000000000qq0qqqq                   ",
"                 qqwq000000000000000000000qqwqq                 ",
"                qqq000000000000000000000000000qq                ",
"               qq0q000000008331211115890000000qqq               ",
"             qwq000000q951&&======**%%&150000000qq0             ",
"            qq000000093=================&#5000000qwq            ",
"           0w00000003:===================*%#5000000qq           ",
"          qw0000009>==================<==<==%,00000qw0          ",
"          qq000006&===============<==========%:9q0000w          ",
"         q0000005%===========================<%#900000q         ",
"        qq000005&=<============<================#90000qq        ",
"       0q000005&===========1477099762===========*$00000q0       ",
"       q000009&==========27000q0q0q0094====<=====%:0000q0       ",
"      0w00000<=========190q99442244600002=========+50000w0      ",
"      0q00006=========30q042========<400q4=========+0000q0      ",
"     0q00000<========30072============<6qq4========@>q000w0     ",
"     0qq0005%=======3006================3qq4========+0000q0     ",
"     q00000:====<==<004==================3002======<o>0000q     ",
"    0w00006*=======607=======26692========509<======%+0000w0    ",
"    qq00003*======2002======#900q<========<904======<X9000q0    ",
"    000000:=======804=======&80002=========100======<o,00000    ",
"    000009===<===1002=====<0800909702======<901======@-q0000    ",
"    q00008&<=====109=====*:0000000004=======6q4======*O000qq    ",
"    w00005*=====*504======>0000000004=======2q7=======X000qq    ",
"    w00005%======604======#550000323<=======209=======.900qw    ",
"   0qq0005*=====&904======**@9000<**========100<=====*.900qq0   ",
"   0w000q3=======7q2========&9000<==========109<======X9000w0   ",
"    w00003===<==&7q4========#8000<==========109=======X9000w    ",
"    w00006=======5q4========%8000<==========4q7=======O0090w    ",
"    q00009=======1q7========&80007472=======504=====<%+0000q    ",
"    000009:======:002===<===%50000004======&0q2======*-q0000    ",
"    0q00001=======904*======%>000000q<=====4q7=======%,q0000    ",
"    0q00003=======10q2=<=====o5q000qq6=====904=======o6000w0    ",
"    0w00008=======%9q7========+>58831=====5q9====<===#0000w0    ",
"     q000002=======<006========*%%%%======904=======%>0000q     ",
"     0q00003========3004========<=<=======507=======+9000q0     ",
"     0w00000:====<===3q072============<===100======%>q000w0     ",
"      0000006=========300q4<========<4072<=9q4=====#000000      ",
"      0w00000>=========190q07622244900000090002===%50000w0      ",
"       qq00000&=========<260q0qq00q000249000002=<*:0000q0       ",
"       0w000008&===========146999064<<=*%::11<<=%;00000w0       ",
"        0q000005===============<============*===&90000q0        ",
"         q0000005&===============<===========<*$900000q         ",
"          w0000005&====================<<====*:900000w          ",
"          0w0000008<=*=======<==============%1000000w0          ",
"           0w00000005&*<==<===============%:8000000w0           ",
"            qw000000093&============<==*%:50000000wq            ",
"             0wq0000000041:**=======%=:1600000000w0             ",
"               qq000000000996322222459000000000q0               ",
"                qw0000000000q000000q000000000qwq                ",
"                 qqwq0000000000000000000000qwqq                 ",
"                   qqwq000000000000000000qwq0                   ",
"                     qq0qqq000q000000qqw0qq                     ",
"                        qqqqqqwqwww000q0                        ",
"                               00                               ",
"                                                                ",
"                                                                ",
"                                                                "
};
