/* XPM */
static char *edff1c0ec25f4f9df51e642e7f79911e[] = {
/* columns rows colors chars-per-pixel */
"16 16 77 1 ",
"  c None",
". c #E29A32",
"X c #E49B33",
"o c #E59B33",
"O c #E29D32",
"+ c #E39E32",
"@ c #E59C33",
"# c #E49D33",
"$ c #E59D33",
"% c #E49E33",
"& c #E59E33",
"* c #E59F33",
"= c #E4A033",
"- c #E4A133",
"; c #E5A133",
": c #E5A333",
"> c #E5A433",
", c #E4A633",
"< c #E5A134",
"1 c #E5A334",
"2 c #E6A334",
"3 c #E7A434",
"4 c #E6A534",
"5 c #E6A634",
"6 c #E6A734",
"7 c #E7A734",
"8 c #E7A735",
"9 c #E4A934",
"0 c #E5AA34",
"q c #E7AA35",
"w c #E6AB35",
"e c #E7AB35",
"r c #E7AC35",
"t c #E6AE34",
"y c #E7AE35",
"u c #E8AB35",
"i c #E8AD35",
"p c #E8AE35",
"a c #E8AD36",
"s c #E8B035",
"d c #E9B035",
"f c #E8B136",
"g c #E9B136",
"h c #E8B336",
"j c #E9B336",
"k c #EAB536",
"l c #EAB537",
"z c #EAB636",
"x c #EBB637",
"c c #E8B837",
"v c #EAB837",
"b c #E9BB37",
"n c #EABA37",
"m c #EDBF38",
"M c #EBC339",
"N c #EDC038",
"B c #EDC539",
"V c #EEC539",
"C c #EFC73A",
"Z c #EDC939",
"A c #EEC93A",
"S c #EDCA3B",
"D c #EFCA3A",
"F c #EFCC3B",
"G c #F1C53A",
"H c #F2C63A",
"J c #F2C73A",
"K c #F0C83A",
"L c #F1C83A",
"P c #F0C93A",
"I c #F1C93A",
"U c #F2C83A",
"Y c #F0CA3A",
"T c #F1CA3A",
"R c #F0CB3B",
"E c #F2CB3B",
"W c #F0CC3B",
/* pixels */
"                ",
"       WF       ",
"     WYJJCE     ",
"   DEl2%%%yYD   ",
"   EwX>au8#>Y   ",
"  DzXwg>8gwXyD  ",
"  Y>2g%ga@f2OC  ",
" DJ%w82Mb@>y.mD ",
" DU%wu.cz@5a.ND ",
"  Y>2g@5n2a3@B  ",
"  Dxougu>an;yD  ",
"   Ywo;aa>wwY   ",
"   EWz2o@;aYD   ",
"     YYJJYW     ",
"       WY       ",
"                "
};
